<svg width="133" height="49" viewBox="0 0 133 49" fill="none" xmlns="http://www.w3.org/2000/svg">
<g clip-path="url(#clip0_45_313)">
<path d="M28.4982 7.59998H6.55125C3.50877 7.59998 1.04297 10.0658 1.04297 13.1083V35.0552C1.04297 38.0977 3.50877 40.5635 6.55125 40.5635H28.4982C31.5407 40.5635 34.0065 38.0977 34.0065 35.0552V13.1083C34.0065 10.0658 31.5407 7.59998 28.4982 7.59998ZM28.0143 32.8314C28.0143 33.7925 27.2355 34.5714 26.2744 34.5714H8.77512C7.81398 34.5714 7.03514 33.7925 7.03514 32.8314V15.3321C7.03514 14.371 7.81398 13.5921 8.77512 13.5921H26.2744C27.2355 13.5921 28.0143 14.371 28.0143 15.3321V32.8314ZM14.0282 28.556C13.4747 28.556 13.0306 28.1086 13.0306 27.5551V20.5686C13.0306 20.0152 13.4747 19.5644 14.0282 19.5644H21.0246C21.5748 19.5644 22.0222 20.0118 22.0222 20.5686V27.5518C22.0222 28.1052 21.5748 28.5527 21.0246 28.5527H14.0282V28.556ZM42.7462 28.0787H46.3455C46.5244 30.117 47.9065 31.7078 50.6938 31.7078C53.1828 31.7078 54.714 30.4783 54.714 28.619C54.714 26.879 53.5142 26.1001 51.3533 25.5897L48.5627 24.9899C45.5335 24.3303 43.2533 22.3815 43.2533 19.1999C43.2533 15.6901 46.372 13.2905 50.422 13.2905C54.7106 13.2905 57.4714 15.5409 57.71 18.8684H54.2301C53.8158 17.3107 52.5232 16.3827 50.4253 16.3827C48.2048 16.3827 46.6769 17.5825 46.6769 19.1137C46.6769 20.6449 47.996 21.5729 50.2762 22.0833L53.0369 22.6831C56.0662 23.3427 58.1343 25.1721 58.1343 28.3803C58.1343 32.4602 55.0752 34.8895 50.6971 34.8895C45.7754 34.8862 43.0478 32.2182 42.7462 28.0787ZM71.0101 40.5635V34.5946L71.2454 31.9763H71.0101C70.1849 33.8588 68.4515 34.8895 66.0984 34.8895C62.3036 34.8895 59.4798 31.8006 59.4798 27.0646C59.4798 22.3285 62.3036 19.2396 66.0984 19.2396C68.4217 19.2396 70.0689 20.3267 71.0101 22.0335H71.2454V19.5313H74.3642V40.5635H71.0101ZM71.1261 27.0613C71.1261 24.032 69.2735 22.2655 67.0065 22.2655C64.7396 22.2655 62.8869 24.032 62.8869 27.0613C62.8869 30.0905 64.7396 31.857 67.0065 31.857C69.2735 31.857 71.1261 30.0938 71.1261 27.0613ZM76.8532 28.6223V19.5313H80.2072V28.3273C80.2072 30.7102 81.3539 31.857 83.2662 31.857C85.6193 31.857 87.1505 30.18 87.1505 27.5617V19.5313H90.5046V34.5912H87.3858V31.4725H87.1505C86.4148 33.4743 84.7974 34.8862 82.2985 34.8862C78.7058 34.8862 76.8532 32.5927 76.8532 28.6223ZM92.5461 30.3855C92.5461 27.5617 94.5181 25.9145 98.018 25.709L102.164 25.4439V24.2673C102.164 22.8555 101.133 22.0037 99.3105 22.0037C97.6335 22.0037 96.6326 22.8555 96.3675 24.0619H93.0134C93.3681 21.0028 95.8968 19.2363 99.3072 19.2363C103.162 19.2363 105.515 20.8835 105.515 24.0619V34.5912H102.396V31.7973H102.161C101.455 33.65 99.9833 34.8862 97.1596 34.8862C94.4585 34.8862 92.5461 33.0634 92.5461 30.3855ZM102.167 28.5328V27.7374L98.7836 27.9727C96.9607 28.0887 96.1355 28.7681 96.1355 30.1203C96.1355 31.267 97.0767 32.0923 98.3991 32.0923C100.785 32.0923 102.167 30.5644 102.167 28.5328ZM108.017 34.5946V19.5313H111.136V22.4147H111.371C111.812 20.4427 113.313 19.5313 115.547 19.5313H117.078V22.5605H115.166C112.988 22.5605 111.371 23.9724 111.371 26.6503V34.5912H108.017V34.5946ZM132.423 27.681H120.979C121.155 30.4451 123.097 32.0061 125.245 32.0061C127.067 32.0061 128.214 31.2704 128.864 30.0341H132.188C131.276 33.0932 128.599 34.8862 125.215 34.8862C120.774 34.8862 117.655 31.562 117.655 27.0613C117.655 22.5605 120.86 19.2363 125.245 19.2363C129.656 19.2363 132.539 22.2655 132.539 26.0305C132.543 26.7696 132.483 27.1507 132.423 27.681ZM129.218 25.3577C129.102 23.2698 127.366 21.8579 125.248 21.8579C123.246 21.8579 121.572 23.1239 121.158 25.3577H129.218Z" fill="#AFAFAF"/>
</g>
<defs>
<clipPath id="clip0_45_313">
<rect width="132" height="48" fill="white" transform="translate(0.792969 0.599976)"/>
</clipPath>
</defs>
</svg>
